<svg width="11" height="8" viewBox="0 0 11 8" fill="none" xmlns="http://www.w3.org/2000/svg">
<path d="M10.4646 2.64167C10.5458 2.57708 10.6667 2.6375 10.6667 2.73958V7C10.6667 7.55208 10.2187 8 9.66667 8H1C0.447917 8 0 7.55208 0 7V2.74167C0 2.6375 0.11875 2.57917 0.202083 2.64375C0.66875 3.00625 1.2875 3.46667 3.4125 5.01042C3.85208 5.33125 4.59375 6.00625 5.33333 6.00208C6.07708 6.00833 6.83333 5.31875 7.25625 5.01042C9.38125 3.46667 9.99792 3.00417 10.4646 2.64167ZM5.33333 5.33333C5.81667 5.34167 6.5125 4.725 6.8625 4.47083C9.62708 2.46458 9.8375 2.28958 10.475 1.78958C10.5958 1.69583 10.6667 1.55 10.6667 1.39583V1C10.6667 0.447917 10.2187 0 9.66667 0H1C0.447917 0 0 0.447917 0 1V1.39583C0 1.55 0.0708333 1.69375 0.191667 1.78958C0.829167 2.2875 1.03958 2.46458 3.80417 4.47083C4.15417 4.725 4.85 5.34167 5.33333 5.33333Z" fill="#404040"/>
</svg>
